<svg width="512" height="160" viewBox="0 0 512 160" fill="none" xmlns="http://www.w3.org/2000/svg" role="img" aria-labelledby="title desc">
  <title id="title">WebX Logo</title>
  <desc id="desc">Black and white WebX wordmark with an angular X symbol.</desc>
  <rect width="512" height="160" rx="28" fill="#0A0A0A"/>
  <path d="M56 48H93.5L112 91.5L130.5 48H160L178.5 91.5L197 48H234.5L193.5 112H164L145.25 70.5L126.5 112H97L56 48Z" fill="white"/>
  <path d="M252 48H324V73H284V82H319V105H284V112H252V48Z" fill="white"/>
  <path d="M343 48H382.5L401.5 72L420.5 48H456L419.5 94.5L456 112H416.5L397.5 88L378.5 112H343L379.5 65.5L343 48Z" fill="white"/>
  <path d="M352 40L464 120" stroke="white" stroke-width="8" stroke-linecap="round"/>
  <path d="M464 40L352 120" stroke="white" stroke-width="8" stroke-linecap="round"/>
  <rect x="20" y="20" width="472" height="120" rx="20" stroke="white" stroke-opacity="0.18" stroke-width="2"/>
</svg>
